<svg xmlns="http://www.w3.org/2000/svg" viewBox="0 0 24 24">
  <defs>
    <style>
      @keyframes flapWings {
        0% { transform: rotate(0deg); }
        50% { transform: rotate(30deg); }
        100% { transform: rotate(0deg); }
      }
    </style>
  </defs>
  
  <!-- Body -->
  <path d="M12 8c3 0 5 2 6 4s1 4 0 5-3 2-6 2-5-1-6-2 1-3 0-5 3-4 6-4z" fill="#4299E1"/>
  
  <!-- Head -->
  <circle cx="18" cy="9" r="2.5" fill="#4299E1"/>
  
  <!-- Beak -->
  <path d="M20 8.5l2 0.5-2 0.5z" fill="#ECC94B"/>
  
  <!-- Eye -->
  <circle cx="18.5" cy="8.5" r="0.5" fill="black"/>
  
  <!-- Wings -->
  <g>
    <path d="M10 8c2-2 4-2 5-1s1 2 0 3-3 1-4 0-2-1-1-2z" fill="#63B3ED" style="animation: flapWings 0.5s infinite">
      <animateTransform
        attributeName="transform"
        type="rotate"
        from="0 12 10"
        to="20 12 10"
        dur="0.5s"
        repeatCount="indefinite"
        additive="sum"
      />
    </path>
  </g>
  
  <!-- Tail feathers -->
  <path d="M6 12l-2 2 2 2z" fill="#4299E1"/>
  
  <!-- Additional feather details -->
  <path d="M13 12c1 0 2 0.5 2 1s-1 1-2 1-2-0.5-2-1 1-1 2-1z" fill="#63B3ED"/>
</svg>